<svg xmlns="http://www.w3.org/2000/svg" viewBox="0 0 96 96" fill="none" role="img" aria-label="Keyboard VC favicon">
  <defs>
    <linearGradient id="bg" x1="0" y1="0" x2="96" y2="96">
      <stop offset="0%" stop-color="#0a1021"/>
      <stop offset="50%" stop-color="#17234e"/>
      <stop offset="100%" stop-color="#0f4fbf"/>
    </linearGradient>
    <linearGradient id="panel" x1="18" y1="24" x2="78" y2="72">
      <stop offset="0%" stop-color="#d9fcff" stop-opacity="0.12"/>
      <stop offset="100%" stop-color="#ffffff" stop-opacity="0.05"/>
    </linearGradient>
    <linearGradient id="accent" x1="24" y1="30" x2="72" y2="68">
      <stop offset="0%" stop-color="#67e8f9"/>
      <stop offset="50%" stop-color="#22d3ee"/>
      <stop offset="100%" stop-color="#a78bfa"/>
    </linear-gradient>
    <filter id="halo" x="-20%" y="-20%" width="140%" height="140%">
      <feGaussianBlur stdDeviation="1.8" result="blur"/>
      <feMerge>
        <feMergeNode in="blur"/>
        <feMergeNode in="SourceGraphic"/>
      </feMerge>
    </filter>
  </defs>

  <rect width="96" height="96" rx="22" fill="url(#bg)"/>
  <rect x="10" y="10" width="76" height="76" rx="18" fill="none" stroke="url(#accent)" stroke-opacity="0.75" stroke-width="1.2"/>

  <rect x="18" y="22" width="60" height="52" rx="13" fill="url(#panel)" stroke="#93c5fd" stroke-opacity="0.45"/>
  <rect x="26" y="28" width="18" height="8" rx="3" fill="#0b1530" opacity="0.7"/>
  <rect x="46" y="28" width="18" height="8" rx="3" fill="#0b1530" opacity="0.7"/>
  <rect x="34" y="40" width="13" height="6" rx="2.5" fill="#d1d5db" opacity="0.4"/>
  <rect x="52" y="40" width="13" height="6" rx="2.5" fill="#d1d5db" opacity="0.4"/>
  <rect x="26" y="50" width="13" height="6" rx="2.5" fill="#d1d5db" opacity="0.4"/>
  <rect x="44" y="50" width="13" height="6" rx="2.5" fill="#d1d5db" opacity="0.4"/>
  <rect x="62" y="50" width="13" height="6" rx="2.5" fill="#d1d5db" opacity="0.4"/>

  <path d="M34 66V32" stroke="url(#accent)" stroke-width="4.2" stroke-linecap="round" filter="url(#halo)"/>
  <path d="M34 47L50 66" stroke="url(#accent)" stroke-width="4.2" stroke-linecap="round" filter="url(#halo)"/>
  <path d="M34 47L50 32" stroke="url(#accent)" stroke-width="4.2" stroke-linecap="round" filter="url(#halo)"/>

  <path d="M58 65L50 54L58 43" stroke="#e0f2fe" stroke-width="4.4" stroke-linecap="round" stroke-linejoin="round"/>
  <path d="M62 43c8 0 9 6.5 9 11s-1 11-9 11" stroke="#e0f2fe" stroke-width="3.8" stroke-linecap="round"/>
</svg>
